<?xml version="1.0" encoding="UTF-8"?>
<svg version="1.1" xmlns="http://www.w3.org/2000/svg" width="2000" height="2000">
<path d="M0 0 C660 0 1320 0 2000 0 C2000 660 2000 1320 2000 2000 C1340 2000 680 2000 0 2000 C0 1340 0 680 0 0 Z " fill="#000000" transform="translate(0,0)"/>
<path d="M0 0 C1.03836156 -0.0073284 1.03836156 -0.0073284 2.09770012 -0.01480484 C7.37241875 -0.05166377 12.64703718 -0.06792988 17.921875 -0.07421875 C18.69880833 -0.07522205 19.47574165 -0.07622536 20.27621841 -0.07725906 C46.58623839 -0.09811269 72.5688538 0.6489756 98.671875 4.23828125 C99.55411743 4.35943298 100.43635986 4.48058472 101.34533691 4.60540771 C146.6856917 10.92402399 191.27565753 22.37265059 232.671875 42.23828125 C234.11288574 42.92470703 234.11288574 42.92470703 235.58300781 43.625 C265.55975839 57.99451991 293.90303111 75.98350941 318.1484375 98.8671875 C320.27208749 100.86262952 322.43610671 102.74709914 324.671875 104.61328125 C330.48599973 109.67216916 335.53734772 115.50801815 340.671875 121.23828125 C341.47165771 122.1209668 341.47165771 122.1209668 342.28759766 123.02148438 C371.80620548 155.67583356 392.37604557 195.13904718 404.671875 237.23828125 C404.90213379 237.99786133 405.13239258 238.75744141 405.36962891 239.54003906 C413.78242461 267.42632738 416.671875 297.2421766 416.671875 326.23828125 C339.451875 326.23828125 262.231875 326.23828125 182.671875 326.23828125 C181.681875 320.62828125 180.691875 315.01828125 179.671875 309.23828125 C175.43307865 287.25401542 166.70490742 267.06424414 151.671875 250.23828125 C150.89714844 249.36945313 150.12242187 248.500625 149.32421875 247.60546875 C133.50724417 230.8580839 113.27008821 220.4964422 91.671875 213.23828125 C90.99543945 213.01011719 90.31900391 212.78195312 89.62207031 212.546875 C70.58883054 206.25340885 50.98958349 204.09064876 30.99609375 204.0703125 C29.82786575 204.0669841 28.65963776 204.0636557 27.45600891 204.06022644 C25.00135691 204.05519786 22.54669816 204.05281684 20.09204102 204.05297852 C16.37960318 204.05079316 12.66746356 204.03259632 8.95507812 204.01367188 C-2.96768387 203.984948 -14.57327739 204.03652339 -26.328125 206.23828125 C-27.16206787 206.38434814 -27.99601074 206.53041504 -28.85522461 206.6809082 C-53.439518 211.24981281 -77.77324895 220.41525177 -97.328125 236.23828125 C-98.30007813 237.016875 -99.27203125 237.79546875 -100.2734375 238.59765625 C-116.02319284 252.02223879 -126.91283317 271.60320177 -129.328125 292.23828125 C-131.1284571 315.91836054 -127.34792688 337.82716686 -111.87109375 356.5390625 C-110.34426238 358.26400855 -110.34426238 358.26400855 -108.62890625 359.84375 C-107.328125 361.23828125 -107.328125 361.23828125 -107.328125 363.23828125 C-106.74546875 363.49609375 -106.1628125 363.75390625 -105.5625 364.01953125 C-103.14337963 365.33905145 -101.54755197 366.81612053 -99.578125 368.73828125 C-76.28683535 389.78049383 -41.93272541 401.0451682 -12.328125 409.23828125 C-10.98331055 409.61291504 -10.98331055 409.61291504 -9.61132812 409.99511719 C9.65478793 415.30923495 29.14661197 419.42323411 48.69284058 423.54551697 C57.71854309 425.45225267 66.72938527 427.42368972 75.734375 429.42578125 C76.85304962 429.67432358 76.85304962 429.67432358 77.99432373 429.92788696 C88.26217426 432.21323211 98.50217527 434.5969078 108.72119141 437.09277344 C115.02510224 438.62635399 121.34465449 440.0568988 127.68505859 441.43164062 C173.88004837 451.47030659 219.0970374 466.64685137 261.671875 487.23828125 C262.59355469 487.68059082 263.51523437 488.12290039 264.46484375 488.57861328 C288.70521432 500.25203261 311.70053666 514.33988879 332.671875 531.23828125 C333.58710937 531.96144531 334.50234375 532.68460938 335.4453125 533.4296875 C350.53602293 545.5152278 364.75428376 559.0059902 376.671875 574.23828125 C377.66893342 575.47162701 378.66635168 576.70468193 379.6640625 577.9375 C410.13146089 616.09120255 427.57880462 663.75076455 431.671875 712.23828125 C431.75945068 713.26268311 431.84702637 714.28708496 431.93725586 715.3425293 C432.7089894 725.44666235 432.8580681 735.5130838 432.85717773 745.64282227 C432.85935829 748.40461803 432.87757686 751.16600902 432.89648438 753.92773438 C432.95036376 770.59788556 431.61727147 786.97452714 428.484375 803.36328125 C428.27151855 804.48871338 428.05866211 805.61414551 427.83935547 806.77368164 C417.18751922 861.15709721 393.5007648 910.45555997 354.671875 950.23828125 C353.99576172 950.94017578 353.31964844 951.64207031 352.62304688 952.36523438 C344.04236004 961.26167785 335.37004166 969.58510704 325.41992188 976.93017578 C323.62815331 978.27099924 321.87558234 979.65280439 320.125 981.046875 C308.37807916 990.29362752 295.62764275 997.81945783 282.671875 1005.23828125 C281.84316895 1005.71539551 281.01446289 1006.19250977 280.16064453 1006.68408203 C265.63656554 1014.95400926 250.17124994 1021.07751515 234.671875 1027.23828125 C233.6617334 1027.64385254 232.6515918 1028.04942383 231.61083984 1028.46728516 C220.5060069 1032.91266288 209.42224408 1036.66764058 197.84277344 1039.66162109 C195.69366544 1040.23249301 193.56195954 1040.8459251 191.4296875 1041.4765625 C179.65882498 1044.93393547 167.75152357 1047.31046343 155.70825195 1049.61450195 C152.72997311 1050.22634584 149.79977267 1050.9533644 146.8515625 1051.6953125 C137.91460092 1053.78435139 128.82070752 1054.80408915 119.72143555 1055.91821289 C116.66639196 1056.2937721 113.61351529 1056.68414494 110.56054688 1057.07617188 C81.09505795 1060.79193979 51.88977173 1061.64469869 22.234375 1061.61328125 C20.82844463 1061.61314341 20.82844463 1061.61314341 19.39411163 1061.61300278 C-8.58467556 1061.60945979 -36.28376375 1061.1968687 -64.06488037 1057.53253174 C-66.34460475 1057.23613867 -68.62591147 1056.95879876 -70.90869141 1056.68701172 C-121.7086153 1050.60402733 -171.47984423 1037.94112628 -218.328125 1017.23828125 C-219.11606445 1016.89055664 -219.90400391 1016.54283203 -220.71582031 1016.18457031 C-249.73599643 1003.24604029 -277.7113226 986.11832487 -300.9921875 964.3984375 C-302.98732229 962.55343827 -305.01706593 960.77465027 -307.07421875 959 C-318.08898029 949.38769938 -328.45045962 938.85933267 -337.328125 927.23828125 C-338.13378906 926.21476562 -338.93945312 925.19125 -339.76953125 924.13671875 C-359.87576458 898.51263833 -374.90043323 870.71379594 -386.328125 840.23828125 C-386.83883545 838.8937085 -386.83883545 838.8937085 -387.35986328 837.52197266 C-391.76882709 825.83633627 -395.0711912 814.10636314 -397.73095703 801.90820312 C-398.31799508 799.28357186 -398.95504621 796.67597434 -399.60546875 794.06640625 C-403.74413935 776.99008217 -405.50510836 759.62988226 -407.14526367 742.16687012 C-407.30860398 740.44416415 -407.48267692 738.72248359 -407.65820312 737.00097656 C-408.60915559 726.66352475 -408.328125 716.76517332 -408.328125 706.23828125 C-330.778125 706.23828125 -253.228125 706.23828125 -173.328125 706.23828125 C-172.008125 714.81828125 -170.688125 723.39828125 -169.328125 732.23828125 C-168.1304633 737.70760302 -166.92544883 742.90636932 -165.328125 748.23828125 C-165.13025391 748.90021484 -164.93238281 749.56214844 -164.72851562 750.24414062 C-159.75677266 766.47496921 -152.08231182 782.05136995 -141.328125 795.23828125 C-140.89806152 795.77759277 -140.46799805 796.3169043 -140.02490234 796.87255859 C-115.53404657 827.44566515 -79.49415145 844.89685619 -41.62939453 852.75927734 C-39.53256799 853.19572692 -37.44408542 853.65892468 -35.35546875 854.1328125 C-17.6133874 857.98483658 0.19570747 858.61729109 18.296875 858.55078125 C19.88343399 858.54754852 19.88343399 858.54754852 21.50204468 858.54425049 C37.08220816 858.4933354 52.32142482 858.14835637 67.671875 855.23828125 C68.75581543 855.03960449 69.83975586 854.84092773 70.95654297 854.63623047 C103.56925405 848.49460693 133.30143254 836.14062476 157.671875 813.23828125 C158.59419922 812.43003906 158.59419922 812.43003906 159.53515625 811.60546875 C174.39646943 798.00822129 182.05941356 776.75638259 184.671875 757.23828125 C185.71681226 733.08321988 179.84743039 712.89977699 163.921875 694.48828125 C133.79193932 662.87730419 84.39618032 649.04207161 43.44287109 638.92773438 C40.1776841 638.11532133 36.91919344 637.2781451 33.66015625 636.44140625 C10.24491151 630.45505929 -13.32589844 625.24232651 -36.953125 620.16796875 C-40.14066186 619.4832443 -43.32816375 618.79835758 -46.515625 618.11328125 C-47.68581177 617.86194427 -47.68581177 617.86194427 -48.87963867 617.60552979 C-60.43769034 615.11980739 -71.94674729 612.47895782 -83.4296875 609.6640625 C-87.54045703 608.65943725 -91.65923357 607.70439548 -95.7890625 606.78125 C-109.59224843 603.69264666 -123.15019961 600.12979431 -136.6875 596.03027344 C-139.05205493 595.32108185 -141.42114405 594.6354478 -143.796875 593.96484375 C-192.50735139 580.18373526 -239.66914972 558.54483727 -280.328125 528.23828125 C-280.88725586 527.82336426 -281.44638672 527.40844727 -282.02246094 526.98095703 C-288.64389216 522.04618837 -294.99570287 516.90902411 -301.07421875 511.30859375 C-303.08115983 509.46512968 -305.12724742 507.69049032 -307.203125 505.92578125 C-316.46557341 497.82347789 -324.82840675 488.99306942 -332.328125 479.23828125 C-332.75448242 478.68833496 -333.18083984 478.13838867 -333.62011719 477.57177734 C-357.75784922 446.26571237 -372.73528489 409.11087173 -379.328125 370.23828125 C-379.45861237 369.47449661 -379.58909973 368.71071198 -379.72354126 367.92378235 C-382.36425945 352.00946117 -382.84844042 336.34761194 -382.765625 320.23828125 C-382.76258362 318.98370117 -382.75954224 317.72912109 -382.75640869 316.43652344 C-382.68938596 297.73926772 -382.11367169 279.60325911 -378.328125 261.23828125 C-378.11913574 260.18592285 -377.91014648 259.13356445 -377.69482422 258.04931641 C-367.71581308 209.09609997 -345.2035505 164.20738368 -311.3515625 127.4453125 C-309.58363637 125.51697608 -307.88966454 123.54980147 -306.203125 121.55078125 C-297.140215 111.18112609 -287.16927922 101.71490389 -276.328125 93.23828125 C-275.19956598 92.31133477 -274.07340149 91.38146785 -272.94921875 90.44921875 C-258.69648652 78.69902123 -243.18817621 68.89838744 -227.34472656 59.44628906 C-225.57826438 58.38812261 -223.82328393 57.31083723 -222.0703125 56.23046875 C-189.33605187 36.62272867 -151.91664439 24.02375944 -115.06738281 14.91748047 C-112.40842243 14.258191 -109.75499962 13.5795631 -107.1015625 12.8984375 C-80.2837044 6.13043559 -52.23303276 2.21218374 -24.58374023 1.39599609 C-22.70433916 1.26458652 -20.83355642 1.01651357 -18.9699707 0.73999023 C-12.67518691 -0.06379374 -6.33594909 0.03398808 0 0 Z " fill="#FEFEFE" transform="translate(456.328125,467.76171875)"/>
<path d="M0 0 C3.60506066 0.01133985 7.20982428 0.0046277 10.81487465 -0.00685978 C37.03858319 -0.07807767 62.95128107 1.25224052 88.90698242 5.19824219 C90.65424045 5.45374362 92.40163729 5.70829762 94.14916992 5.96191406 C108.2367916 8.02576306 122.37577609 10.14146688 136.21948242 13.51074219 C137.08541016 13.72053711 137.95133789 13.93033203 138.84350586 14.14648438 C166.07170436 20.87345106 192.15254982 29.92391409 217.47387695 41.99121094 C219.91890237 43.14809284 222.37460609 44.27437902 224.84057617 45.38574219 C247.5508417 55.67297005 268.76405344 69.64461291 288.15698242 85.26074219 C289.04901367 85.96070313 289.94104492 86.66066406 290.86010742 87.38183594 C299.035607 93.89594013 306.61786517 101.03045624 314.15698242 108.26074219 C314.71627441 108.79666992 315.27556641 109.33259766 315.85180664 109.88476562 C322.82059264 116.60263315 329.2039652 123.61437554 335.15698242 131.26074219 C336.37514648 132.80568359 336.37514648 132.80568359 337.61791992 134.38183594 C380.74344978 189.41267616 402.15698242 255.6296507 402.15698242 325.26074219 C324.93698242 325.26074219 247.71698242 325.26074219 168.15698242 325.26074219 C167.49698242 320.31074219 166.83698242 315.36074219 166.15698242 310.26074219 C165.49613609 307.07778945 164.82152535 304.00860809 163.96948242 300.88574219 C163.75590088 300.09538574 163.54231934 299.3050293 163.32226562 298.49072266 C158.29774781 280.62616625 150.16981877 265.45996388 138.15698242 251.26074219 C137.64006836 250.59816406 137.1231543 249.93558594 136.59057617 249.25292969 C125.84201098 235.9451823 109.46358347 226.31047011 94.15698242 219.26074219 C93.3397168 218.86371094 92.52245117 218.46667969 91.68041992 218.05761719 C75.97208151 210.90511728 58.19027642 207.49829264 41.15698242 205.26074219 C39.31922241 205.00804565 39.31922241 205.00804565 37.44433594 204.75024414 C27.21769047 203.401253 17.15434218 202.89584458 6.84448242 202.94824219 C6.0713974 202.95039734 5.29831238 202.95255249 4.50180054 202.95477295 C-39.11547831 203.147871 -86.61856163 211.35430732 -119.09301758 242.94824219 C-135.31257365 259.40364111 -144.19950159 280.97454727 -144.21801758 304.07324219 C-143.80450692 328.48021638 -135.25573345 348.23177763 -117.84301758 365.26074219 C-92.03448385 389.19796229 -56.14027336 401.11827338 -22.84301758 410.26074219 C-22.19993652 410.43768616 -21.55685547 410.61463013 -20.89428711 410.79693604 C-9.413776 413.93753183 2.11573486 416.64963236 13.76531982 419.08352661 C18.36423569 420.04488821 22.95966249 421.02269439 27.55541992 421.99902344 C28.46852936 422.1926799 29.38163879 422.38633636 30.32241821 422.58586121 C39.48355383 424.53322829 48.61786195 426.58865488 57.74926758 428.67089844 C64.41647323 430.19064836 71.08663545 431.69164611 77.76635742 433.15527344 C136.92161456 446.12620571 136.92161456 446.12620571 165.30444336 455.34741211 C168.32362465 456.31409794 171.35590421 457.22933721 174.39135742 458.14355469 C181.98047686 460.47300523 189.44814742 463.11189687 196.90698242 465.82324219 C197.62186829 466.0826358 198.33675415 466.34202942 199.07330322 466.60928345 C211.76265966 471.23129394 224.17087118 476.34425227 236.4362793 482.00537109 C238.98761911 483.18259555 241.54754505 484.33867835 244.11010742 485.49121094 C271.76593336 498.08597049 297.42192601 514.35857063 321.15698242 533.26074219 C321.79410156 533.76508789 322.4312207 534.26943359 323.08764648 534.7890625 C339.7641628 548.12088033 355.6947409 563.91550995 368.15698242 581.26074219 C368.97119201 582.33662686 369.78763343 583.41082586 370.60620117 584.48339844 C391.30583815 612.00298257 405.20710925 644.66864594 412.15698242 678.26074219 C412.34244629 679.14149414 412.52791016 680.02224609 412.71899414 680.9296875 C413.27547352 683.59981652 413.81440695 686.27275338 414.34448242 688.94824219 C414.49949219 689.71789307 414.65450195 690.48754395 414.81420898 691.28051758 C417.89544195 707.55097161 418.47838523 723.64104248 418.41772461 740.1640625 C418.40702014 743.62355152 418.41767243 747.08251897 418.43041992 750.54199219 C418.45103508 779.96127101 415.37282927 810.19532622 406.15698242 838.26074219 C405.84245117 839.23430664 405.52791992 840.20787109 405.20385742 841.2109375 C393.06839814 878.46634467 375.304079 913.14531272 348.35229492 941.91699219 C346.39311479 944.00864357 344.51666502 946.14352119 342.65698242 948.32324219 C336.02960596 955.91065916 328.86324399 962.70994625 320.98901367 968.98730469 C318.0944314 971.31095556 315.28652642 973.71895478 312.46948242 976.13574219 C272.13569952 1009.68682219 220.50127725 1030.44814536 170.15698242 1043.26074219 C168.42955811 1043.70329346 168.42955811 1043.70329346 166.66723633 1044.15478516 C148.21892498 1048.82104946 129.78341434 1052.14851568 110.95898438 1054.79931641 C108.08594285 1055.19671376 108.08594285 1055.19671376 105.15698242 1056.26074219 C100.94295284 1056.86404244 96.70346495 1057.25977878 92.46948242 1057.69824219 C90.81722656 1057.8809668 90.81722656 1057.8809668 89.1315918 1058.06738281 C62.82599445 1060.8131807 36.53169165 1061.63944663 10.10256958 1061.57839584 C7.67718242 1061.57315071 5.25180815 1061.57124133 2.82641602 1061.56973267 C-21.84201318 1061.5430591 -46.29424113 1060.8494779 -70.84301758 1058.26074219 C-73.23230921 1058.02994934 -75.62163036 1057.79946177 -78.01098633 1057.56933594 C-128.51812699 1052.4411808 -178.75628924 1040.28505604 -225.45776367 1020.27783203 C-227.62696068 1019.35287044 -229.804417 1018.45295564 -231.98754883 1017.56152344 C-264.07977355 1004.26990986 -292.91555804 984.14230619 -318.84301758 961.26074219 C-319.73504883 960.48085937 -320.62708008 959.70097656 -321.54614258 958.89746094 C-330.61885681 950.86611171 -339.13446943 942.46765547 -346.68286133 932.97558594 C-348.06533526 931.2381187 -349.47227474 929.51966995 -350.90942383 927.82714844 C-375.9586426 898.25707618 -392.59773504 863.77362825 -404.84301758 827.26074219 C-405.11871582 826.45523926 -405.39441406 825.64973633 -405.6784668 824.81982422 C-414.99434873 797.53894648 -419.16678819 768.51698782 -421.65551758 739.88574219 C-421.71886292 739.17414948 -421.78220825 738.46255676 -421.84747314 737.72940063 C-421.90803894 737.03502899 -421.96860474 736.34065735 -422.03100586 735.62524414 C-422.08354523 735.02428421 -422.13608459 734.42332428 -422.19021606 733.80415344 C-422.88216847 724.50151681 -422.84301758 715.69050575 -422.84301758 706.26074219 C-345.29301758 706.26074219 -267.74301758 706.26074219 -187.84301758 706.26074219 C-186.19301758 716.16074219 -184.54301758 726.06074219 -182.84301758 736.26074219 C-181.3142944 742.10810835 -179.82613779 747.60540884 -177.84301758 753.26074219 C-177.46532227 754.36417969 -177.08762695 755.46761719 -176.69848633 756.60449219 C-169.42070568 776.66098467 -158.56211411 792.96757793 -143.84301758 808.26074219 C-143.27454102 808.89238281 -142.70606445 809.52402344 -142.12036133 810.17480469 C-127.31877895 826.14991406 -105.87728992 836.65267855 -85.84301758 844.26074219 C-85.19655273 844.50663086 -84.55008789 844.75251953 -83.8840332 845.00585938 C-79.58933906 846.60553025 -75.2448595 847.99180035 -70.84301758 849.26074219 C-70.13145508 849.46795898 -69.41989258 849.67517578 -68.68676758 849.88867188 C-30.00037463 860.83546372 14.64321385 862.21363254 54.15698242 855.26074219 C55.12603516 855.09445312 56.09508789 854.92816406 57.09350586 854.75683594 C77.60870899 851.10427752 96.88848053 844.26126048 115.15698242 834.26074219 C116.78893555 833.38095703 116.78893555 833.38095703 118.45385742 832.48339844 C125.25138409 828.67919887 131.2372088 824.30967308 137.15698242 819.26074219 C137.90592773 818.65746094 138.65487305 818.05417969 139.42651367 817.43261719 C156.07278572 803.555865 167.23817332 782.64355907 169.83666992 761.21777344 C171.65736598 738.7255161 169.05163344 717.63489936 154.28979492 699.62011719 C131.13358796 673.02577133 97.6552316 660.39423201 65.15698242 649.26074219 C63.65458008 648.74471436 63.65458008 648.74471436 62.12182617 648.21826172 C38.88712488 640.32928891 14.97733462 634.86611806 -8.95518494 629.56871033 C-13.43936741 628.5755632 -17.91948514 627.56568534 -22.39770508 626.54589844 C-35.61353326 623.53725045 -48.84094688 620.6057644 -62.09451294 617.76889038 C-75.48761075 614.9015362 -88.82707203 611.89627406 -102.12841797 608.6262207 C-108.53666931 607.05086839 -114.95003858 605.56557357 -121.40551758 604.19824219 C-129.3077921 602.50112164 -136.98770543 600.21228679 -144.70629883 597.82714844 C-149.01959211 596.49700357 -153.35439657 595.26505236 -157.70361328 594.05834961 C-215.66517419 577.91532307 -273.01549894 549.79213372 -317.84301758 509.26074219 C-318.48287598 508.68259766 -319.12273437 508.10445312 -319.78198242 507.50878906 C-326.84660632 501.09108361 -333.85324603 494.71526136 -339.84301758 487.26074219 C-340.75148985 486.16407155 -341.6603867 485.06775257 -342.56958008 483.97167969 C-367.09789134 454.14304308 -384.60531099 418.33937686 -391.84301758 380.26074219 C-391.96628418 379.6287793 -392.08955078 378.99681641 -392.21655273 378.34570312 C-403.45120585 319.85901332 -397.60771583 255.87519362 -373.84301758 201.26074219 C-373.5381543 200.54934082 -373.23329102 199.83793945 -372.91918945 199.10498047 C-360.94586139 171.42797321 -343.29338795 146.67740177 -322.94848633 124.55371094 C-321.49411038 122.96981728 -320.06033678 121.36684565 -318.64379883 119.74902344 C-314.1753563 114.65671459 -309.52693759 110.00423292 -304.43286133 105.53808594 C-301.75186038 103.18058435 -299.14427545 100.75490952 -296.53051758 98.32324219 C-290.57960746 92.91560336 -284.30017429 88.03644552 -277.84301758 83.26074219 C-277.30338379 82.85887695 -276.76375 82.45701172 -276.20776367 82.04296875 C-245.81910096 59.50796402 -211.74609458 41.92792295 -176.19360352 29.11035156 C-173.96902496 28.30628702 -171.75325605 27.48158007 -169.53833008 26.65136719 C-132.33119574 12.87986695 -92.17952912 6.11653597 -52.84301758 2.26074219 C-52.0589151 2.17816162 -51.27481262 2.09558105 -50.46694946 2.01049805 C-33.64219312 0.26136731 -16.89552293 -0.05359823 0 0 Z " fill="#FEFEFE" transform="translate(1327.843017578125,467.7392578125)"/>
<path d="M0 0 C63.69 0 127.38 0 193 0 C193 63.69 193 127.38 193 193 C129.31 193 65.62 193 0 193 C0 129.31 0 65.62 0 0 Z " fill="#FEFEFE" transform="translate(1767,1322)"/>
</svg>
